<svg width="24" height="25" viewBox="0 0 24 25" fill="none" xmlns="http://www.w3.org/2000/svg">
<g clip-path="url(#clip0_1610_68430)">
<path d="M12 2.66699C6.47 2.66699 2 7.13699 2 12.667C2 18.197 6.47 22.667 12 22.667C17.53 22.667 22 18.197 22 12.667C22 7.13699 17.53 2.66699 12 2.66699ZM12 20.667C7.59 20.667 4 17.077 4 12.667C4 8.25699 7.59 4.66699 12 4.66699C16.41 4.66699 20 8.25699 20 12.667C20 17.077 16.41 20.667 12 20.667ZM15.59 7.66699L12 11.257L8.41 7.66699L7 9.07699L10.59 12.667L7 16.257L8.41 17.667L12 14.077L15.59 17.667L17 16.257L13.41 12.667L17 9.07699L15.59 7.66699Z" fill="#666666"/>
</g>
<defs>
<clipPath id="clip0_1610_68430">
<rect width="24" height="24" fill="white" transform="translate(0 0.666992)"/>
</clipPath>
</defs>
</svg>
