<svg width="24" height="25" viewBox="0 0 24 25" fill="none" xmlns="http://www.w3.org/2000/svg">
<path d="M18.0135 8.8789C16.9448 8.8789 15.9712 9.29913 15.2295 9.75241L17.1463 7.78939C17.8776 7.7586 19.9208 7.5512 21.2507 6.22169C22.8936 4.57837 22.8234 1.84418 22.8234 1.84418C22.8234 1.84418 20.0892 1.774 18.4459 3.41686C17.1164 4.74683 16.909 6.79045 16.8782 7.52132L14.9152 9.43815C15.3685 8.69596 15.7887 7.72328 15.7887 6.65415C15.7887 4.33068 13.8053 2.4469 13.8053 2.4469C13.8053 2.4469 11.8219 4.33068 11.8219 6.65415C11.8219 8.56283 13.1587 10.1726 13.6364 10.6871L10.7193 13.5358C11.1159 12.828 11.4551 11.9468 11.4551 10.9877C11.4551 8.66426 9.47172 6.78049 9.47172 6.78049C9.47172 6.78049 7.48878 8.66426 7.48878 10.9877C7.48878 12.8353 8.7404 14.4016 9.25391 14.9668L6.50478 17.652C6.84802 16.9846 7.12153 16.1835 7.12153 15.3213C7.12153 12.9978 5.13814 11.1141 5.13814 11.1141C5.13814 11.1141 3.15519 12.9978 3.15519 15.3209C3.15519 17.1136 4.33255 18.6401 4.87142 19.2465L2.3401 21.7185C1.56032 22.4801 1.03685 23.2762 1.21436 23.4532C1.39187 23.6308 2.18795 23.1073 2.94915 22.3271L5.42161 19.7957C6.02749 20.3355 7.55444 21.5124 9.34629 21.5124C11.6698 21.5124 13.5535 19.529 13.5535 19.529C13.5535 19.529 11.6698 17.5461 9.34674 17.5461C8.4841 17.5461 7.68304 17.8196 7.01602 18.1628L9.70085 15.4137C10.266 15.9272 11.8319 17.1788 13.6799 17.1788C16.0033 17.1788 17.8871 15.1954 17.8871 15.1954C17.8871 15.1954 16.0033 13.2125 13.6799 13.2125C12.7208 13.2125 11.8396 13.5517 11.1318 13.9483L13.9801 11.0312C14.4954 11.5089 16.1048 12.8452 18.0135 12.8452C20.3369 12.8452 22.2207 10.8618 22.2207 10.8618C22.2207 10.8618 20.3369 8.8789 18.0135 8.8789Z" fill="#424242"/>
<path d="M0.5 23.666L17.5 6.66602L18 7.66602L2 23.666H0.5Z" fill="#424242"/>
</svg>
