<?xml version="1.0" encoding="utf-8"?>
<!-- Svg Vector Icons : http://www.onlinewebfonts.com/icon -->
<!DOCTYPE svg PUBLIC "-//W3C//DTD SVG 1.1//EN" "http://www.w3.org/Graphics/SVG/1.1/DTD/svg11.dtd">
<svg version="1.1" xmlns="http://www.w3.org/2000/svg" xmlns:xlink="http://www.w3.org/1999/xlink" x="0px" y="0px" viewBox="0 0 1000 1000" enable-background="new 0 0 1000 1000" xml:space="preserve">
<metadata> Svg Vector Icons : http://www.onlinewebfonts.com/icon </metadata>
<g><g transform="translate(0.000000,511.000000) scale(0.100000,-0.100000)"><path d="M7260.7,4192.3c-26-12-64-46-84-74c-36-50-677.9-2989.4-677.9-3105.4c0-28,10-76,24-104c40-90,110-110,375.9-110h240V507c0-267.9-2-289.9-34-280c-80,24-415.9,72-705.9,104c-238,24-439.9,30-863.8,24l-555.9-10v52c0,28-22,114-50,188c-222,633.9-929.8,1063.8-1601.7,973.8c-567.9-74-1079.8-477.9-1247.8-979.8c-24-72-46-132-48-136c-4-2-96,18-204,44c-381.9,96-781.9,118-1155.8,62C381.9,505,200,451,146,389c-78-90-52-254,50-321.9c64-42,140-40,323.9,8c843.8,222,1747.7-16,2397.6-627.9l150-142l-327.9-14c-791.9-34-1579.7-192-2289.6-461.9c-282-106-349.9-162-349.9-291.9c0-62,14-94,58-140c78-76,172-76,359.9,2c455.9,188,1013.8,333.9,1601.7,421.9c347.9,52,1103.8,72,1479.7,40c991.8-84,1969.6-389.9,2803.5-875.8l136-78h-455.9c-250-2-561.9-12-693.9-26c-867.8-90-1749.7-341.9-2477.5-705.9c-561.9-281.9-1261.8-759.9-1307.8-893.8c-60-172,124-341.9,281.9-257.9c24,12,112,74,198,137.9c1533.7,1165.8,3501.3,1595.7,5385,1177.8c355.9-78,683.9-180,1035.8-321.9c164-64,313.9-118,335.9-118c58,0,154,54,180,102c32,62,28,172-12,230c-68,106-817.9,381.9-1371.7,503.9c-148,32-190,52-300,138C6470.8-1446.6,5229.1-938.8,4059.3-780.8c-170,24-335.9,46-369.9,52c-44,6-88,42-164,138l-104,128l244,80C4635.2-60.9,5667,29.1,6672.8-120.9c140-20,304-48,361.9-60c100-22,104-26,104-92c0-90,86-186,180-200c82-12,198,50,214,114c6,20,22,38,36,38c66,0,771.8-260,825.8-304c16-14,24-78,24-187.9c0-156,4-172,58-232c50-56,72-66,150-66c114,0,186,64,207.9,186l14,84l184-108c100-58,264-162,365.9-230c228-154,265.9-170,351.9-142c134,44,192,208,116,317.9c-44,62-495.9,357.9-793.9,517.9l-234,128v257.9v258h248c237.9,0,252,2,310,52c34,28,66,78,72,114c14,78-611.9,3029.4-663.9,3133.4c-48,94-170,140-255.9,98c-30-16-72-50-92-78c-24-32-98-339.9-208-859.8c-94-445.9-178-825.8-186-845.8c-10-24-104,381.9-262,1119.8c-136,635.9-260,1181.8-276,1211.8c-26,52-130,114-190,114C7320.7,4218.3,7286.7,4206.3,7260.7,4192.3z M7538.6,2082.7c98-465.9,180-851.8,180-855.8c0-4-166-8-369.9-8c-301.9,0-369.9,6-369.9,28c0,24,288,1381.7,343.9,1621.7c12,56,26,92,28,80C7354.7,2938.5,7438.7,2546.6,7538.6,2082.7z M8818.4,1442.8c98-465.9,180-849.8,180-855.8c0-4-166-8-369.9-8c-301.9,0-369.9,6-369.9,28c0,24,288,1381.7,343.9,1621.7c12,56,26,92,28,80C8634.4,2298.7,8718.4,1908.7,8818.4,1442.8z M3783.3,1116.9c180-38,391.9-152,521.9-279.9c136-136,236-329.9,240-469.9l4-92l-279.9-58c-321.9-64-751.9-188-1011.8-287.9l-178-68l-136,98c-118,86-445.9,290-489.9,305.9c-8,2-6,54,6,114c64,343.9,359.9,637.9,733.9,727.9C3335.4,1140.9,3639.4,1146.9,3783.3,1116.9z M7848.6,754.9c-4-26-22-108-40-182c-36-164-38-236-6-304c40-90,110-110,375.9-110h240v-162c0-146-4-162-34-152c-20,6-148,52-285.9,102c-138,50-315.9,110-393.9,134l-146,42V461v337.9h150C7854.6,798.9,7858.6,796.9,7848.6,754.9z"/><path d="M3395.4,3026.5c-30-16-64-46-76-68c-12-20-20-184-20-377.9c0-323.9,2-341.9,46-391.9c92-106,266-98,333.9,16c36,56,40,102,40,391.9v325.9l-68,68C3575.4,3066.5,3489.4,3078.5,3395.4,3026.5z"/><path d="M1943.7,2516.6c-72-22-144-118-144-194c0-26,12-70,28-100c46-86,495.9-519.9,557.9-533.9c164-42,311.9,126,244,279.9c-28,64-509.9,549.9-545.9,549.9c-12,0-32,4-48,8C2021.7,2530.6,1979.7,2526.6,1943.7,2516.6z"/><path d="M4941.1,2522.6c-62-10-529.9-465.9-563.9-547.9c-36-90-4-194,80-250c138-94,212-56,533.9,276c214,222,244,280,198,387.9C5145.1,2494.6,5055.1,2544.6,4941.1,2522.6z"/><path d="M1041.8,1426.8c-70-50-104-148-80-234c10-38,30-78,44-90c46-38,483.9-260,537.9-272c118-28,255.9,86,255.9,208c0,108-54,158-319.9,289.9C1205.8,1464.8,1123.8,1484.8,1041.8,1426.8z"/><path d="M5545,1340.8c-138-68-257.9-142-281.9-172c-92-116-36-281.9,108-329.9c68-24,84-18,332,102c152,74,280,152,307.9,184c110,130,16,331.9-154,333.9C5809,1458.8,5705,1420.8,5545,1340.8z"/></g></g>
</svg>