<svg width="20" height="21" viewBox="0 0 20 21" fill="none" xmlns="http://www.w3.org/2000/svg">
<path d="M13.75 13.5003V6.83366L10.4167 10.167L13.75 13.5003ZM4.16667 17.667C3.70833 17.667 3.31597 17.5038 2.98958 17.1774C2.66319 16.851 2.5 16.4587 2.5 16.0003V4.33366C2.5 3.87533 2.66319 3.48296 2.98958 3.15658C3.31597 2.83019 3.70833 2.66699 4.16667 2.66699H15.8333C16.2917 2.66699 16.684 2.83019 17.0104 3.15658C17.3368 3.48296 17.5 3.87533 17.5 4.33366V16.0003C17.5 16.4587 17.3368 16.851 17.0104 17.1774C16.684 17.5038 16.2917 17.667 15.8333 17.667H4.16667ZM6.66667 16.0003V4.33366H4.16667V16.0003H6.66667ZM8.33333 16.0003H15.8333V4.33366H8.33333V16.0003Z" fill="#888888"/>
</svg>
