<svg width="16" height="16" viewBox="0 0 16 16" fill="none" xmlns="http://www.w3.org/2000/svg">
<path d="M8.41667 4.83366V11.5003L11.75 8.16699L8.41667 4.83366ZM2.16667 15.667C1.70833 15.667 1.31597 15.5038 0.989583 15.1774C0.663194 14.851 0.5 14.4587 0.5 14.0003V2.33366C0.5 1.87533 0.663194 1.48296 0.989583 1.15658C1.31597 0.830187 1.70833 0.666992 2.16667 0.666992H13.8333C14.2917 0.666992 14.684 0.830187 15.0104 1.15658C15.3368 1.48296 15.5 1.87533 15.5 2.33366V14.0003C15.5 14.4587 15.3368 14.851 15.0104 15.1774C14.684 15.5038 14.2917 15.667 13.8333 15.667H2.16667ZM4.66667 14.0003V2.33366H2.16667V14.0003H4.66667ZM6.33333 14.0003H13.8333V2.33366H6.33333V14.0003Z" fill="#888888"/>
</svg>
