<?xml version="1.0" encoding="utf-8"?>
<svg xmlns="http://www.w3.org/2000/svg" xml:space="preserve" width="402" height="373.333" viewBox="74.731 84.066 402 373.333">
  <path fill="none" stroke="#010101" stroke-miterlimit="10" stroke-width="12" d="M161.096 204.357 81.927 400.329s17.108 50.287 79.169 50.287c62.06 0 79.168-50.287 79.168-50.287l-79.168-195.972zm228.937-59.967-79.168 195.944s17.109 50.281 79.168 50.281c62.061 0 79.168-50.281 79.168-50.281L390.033 144.39z"/>
  <path fill="none" stroke="#010101" stroke-miterlimit="10" stroke-width="18" d="m163.264 196.824 228.947-60.117"/>
  <path fill="none" stroke="#010101" stroke-linecap="round" stroke-miterlimit="10" stroke-width="30" d="M275.564 159.182v-59.004"/>
  <path fill="#010101" d="M81.586 401.581h158.146L225.9 426.875l-24.75 16.379-27.662 7.362-29.268-.905-31.514-9.732-19.837-16.561-11.283-15.287zm229.373-60h158.146l-13.83 25.294-24.75 16.379-27.662 7.362-29.269-.905-31.514-9.732-19.836-16.561-11.285-15.287z"/>
</svg>