<svg width="24" height="25" viewBox="0 0 24 25" fill="none" xmlns="http://www.w3.org/2000/svg">
<g clip-path="url(#clip0_1274_576)">
<path d="M12.8444 14.5517V10.8043C13.713 10.7468 15.2744 10.4869 16.3517 9.40948C17.8832 7.87789 17.7632 5.36683 17.7574 5.26068C17.7402 4.94936 17.4917 4.70076 17.1803 4.68359C17.0743 4.67768 14.5632 4.55778 13.0316 6.08934C12.8686 6.2523 12.7246 6.42643 12.5969 6.60745C12.3725 5.70584 11.9508 4.69852 11.1626 3.91031C9.33325 2.08094 6.32287 2.22477 6.19568 2.23187C5.88436 2.24903 5.63576 2.49763 5.61859 2.80895C5.61158 2.93623 5.46767 5.94661 7.29708 7.77602C8.63733 9.11627 10.6111 9.39737 11.621 9.44912V14.5517C11.8235 14.5289 12.0277 14.5172 12.2327 14.5172C12.4376 14.5172 12.6418 14.529 12.8444 14.5517ZM17.1466 18.1976C16.8201 18.1975 16.4956 18.2495 16.1855 18.3518C15.9092 17.7064 15.4751 17.1305 14.9228 16.6866C14.1637 16.0766 13.2083 15.7406 12.2327 15.7406C11.2571 15.7406 10.3017 16.0766 9.54258 16.6866C8.99025 17.1305 8.55618 17.7064 8.27981 18.3518C7.9697 18.2495 7.64524 18.1975 7.31869 18.1976C5.62663 18.1976 4.25 19.5742 4.25 21.2663V22.4949C4.25 22.8327 4.52388 23.1066 4.86171 23.1066H19.6036C19.9414 23.1066 20.2153 22.8327 20.2153 22.4949V21.2663C20.2153 19.5742 18.8387 18.1976 17.1466 18.1976Z" fill="#424242"/>
</g>
<defs>
<clipPath id="clip0_1274_576">
<rect width="24" height="24" fill="white" transform="translate(0 0.666992)"/>
</clipPath>
</defs>
</svg>
