<svg width="24" height="25" viewBox="0 0 24 25" fill="none" xmlns="http://www.w3.org/2000/svg">
<path d="M14.8487 7.07299C14.8478 7.82853 14.5473 8.55288 14.0131 9.08712C13.4788 9.62137 12.7545 9.92187 11.999 9.92269C8.22396 9.77951 8.22465 4.36819 11.999 4.22329C12.7543 4.22466 13.4784 4.52533 14.0125 5.05946C14.5466 5.59359 14.8473 6.31762 14.8487 7.07299ZM11.999 3.80929C11.9075 3.80929 11.8197 3.77294 11.755 3.70824C11.6903 3.64354 11.654 3.55579 11.654 3.46429V2.47C11.654 2.3785 11.6903 2.29075 11.755 2.22605C11.8197 2.16135 11.9075 2.125 11.999 2.125C12.0905 2.125 12.1782 2.16135 12.2429 2.22605C12.3076 2.29075 12.344 2.3785 12.344 2.47V3.46429C12.344 3.55579 12.3076 3.64354 12.2429 3.70824C12.1782 3.77294 12.0905 3.80929 11.999 3.80929Z" fill="#424242"/>
<path d="M10.3872 4.29271C10.3265 4.29283 10.2669 4.27694 10.2143 4.24666C10.1617 4.21637 10.118 4.17275 10.0877 4.12021L9.59056 3.25771C9.54554 3.17851 9.53366 3.08472 9.55753 2.9968C9.5814 2.90887 9.63908 2.83396 9.71797 2.78841C9.79687 2.74286 9.89058 2.73036 9.97866 2.75365C10.0667 2.77693 10.142 2.83411 10.1881 2.91271L10.6856 3.77521C10.7152 3.82773 10.7306 3.88705 10.7303 3.94734C10.73 4.00764 10.714 4.06681 10.6839 4.11904C10.6538 4.17127 10.6106 4.21475 10.5586 4.2452C10.5065 4.27566 10.4475 4.29203 10.3872 4.29271ZM9.06513 5.6144C8.943 5.6489 8.14777 5.11898 8.03013 5.07068C7.95153 5.02461 7.89436 4.94932 7.87107 4.86124C7.84778 4.77316 7.86028 4.67945 7.90583 4.60055C7.95139 4.52165 8.0263 4.46398 8.11422 4.44011C8.20214 4.41624 8.29593 4.42811 8.37513 4.47314L9.23763 4.97029C9.30203 5.00917 9.35205 5.06793 9.38017 5.13771C9.40828 5.20749 9.41295 5.28451 9.39349 5.35718C9.37403 5.42985 9.33149 5.49423 9.27226 5.54062C9.21304 5.58702 9.14034 5.61291 9.06513 5.6144ZM8.58178 7.4191H7.58715C7.49565 7.4191 7.4079 7.38275 7.3432 7.31805C7.2785 7.25335 7.24215 7.1656 7.24215 7.0741C7.24215 6.9826 7.2785 6.89485 7.3432 6.83014C7.4079 6.76544 7.49565 6.7291 7.58715 6.7291H8.58178C8.67328 6.7291 8.76103 6.76544 8.82574 6.83014C8.89044 6.89485 8.92678 6.9826 8.92678 7.0741C8.92678 7.1656 8.89044 7.25335 8.82574 7.31805C8.76103 7.38275 8.67328 7.4191 8.58178 7.4191ZM8.20435 9.72128C8.12924 9.71967 8.05668 9.69373 7.99757 9.64736C7.93846 9.60099 7.896 9.53669 7.87655 9.46412C7.85711 9.39155 7.86173 9.31463 7.88974 9.24492C7.91774 9.17521 7.96761 9.11646 8.03185 9.07751L8.89435 8.58002C8.97364 8.53427 9.06785 8.52189 9.15626 8.5456C9.24467 8.56932 9.32005 8.62718 9.3658 8.70646C9.41155 8.78575 9.42393 8.87996 9.40021 8.96837C9.3765 9.05679 9.31864 9.13216 9.23935 9.17791C9.11757 9.22828 8.33062 9.75268 8.20435 9.72128ZM9.88899 11.4066C9.8287 11.4059 9.76963 11.3896 9.71759 11.3591C9.66556 11.3287 9.62235 11.2852 9.59223 11.2329C9.56211 11.1807 9.54612 11.1215 9.54583 11.0612C9.54553 11.001 9.56095 10.9416 9.59056 10.8891L10.0877 10.0266C10.1335 9.94732 10.2088 9.88946 10.2972 9.86575C10.3857 9.84203 10.4799 9.85441 10.5592 9.90016C10.6384 9.94591 10.6963 10.0213 10.72 10.1097C10.7437 10.1981 10.7313 10.2923 10.6856 10.3716L10.1881 11.2341C10.1578 11.2866 10.1142 11.3302 10.0617 11.3605C10.0092 11.3908 9.94961 11.4067 9.88899 11.4066ZM12.1915 12.0235C12.1 12.0235 12.0123 11.9871 11.9476 11.9224C11.8829 11.8577 11.8465 11.77 11.8465 11.6785V10.6838C11.8465 10.5923 11.8829 10.5046 11.9476 10.4399C12.0123 10.3752 12.1 10.3388 12.1915 10.3388C12.283 10.3388 12.3708 10.3752 12.4355 10.4399C12.5002 10.5046 12.5365 10.5923 12.5365 10.6838V11.6785C12.5365 11.77 12.5002 11.8577 12.4355 11.9224C12.3708 11.9871 12.283 12.0235 12.1915 12.0235ZM14.494 11.4066C14.4334 11.4067 14.3739 11.3908 14.3214 11.3605C14.2688 11.3302 14.2252 11.2866 14.1949 11.2341L13.6974 10.3716C13.6748 10.3323 13.6601 10.289 13.6542 10.2441C13.6483 10.1991 13.6513 10.1535 13.663 10.1097C13.6748 10.0659 13.695 10.0249 13.7226 9.98893C13.7502 9.95298 13.7846 9.92282 13.8239 9.90016C13.8631 9.87751 13.9065 9.86281 13.9514 9.85691C13.9964 9.851 14.042 9.85401 14.0858 9.86575C14.1296 9.87749 14.1706 9.89774 14.2066 9.92534C14.2425 9.95294 14.2727 9.98735 14.2953 10.0266L14.7925 10.8891C14.8221 10.9416 14.8375 11.001 14.8372 11.0612C14.8369 11.1215 14.8209 11.1807 14.7908 11.2329C14.7607 11.2852 14.7175 11.3287 14.6654 11.3591C14.6134 11.3896 14.5543 11.4059 14.494 11.4066ZM16.1787 9.72128C16.0566 9.75578 15.2613 9.22586 15.1437 9.17791C15.0644 9.13216 15.0065 9.05679 14.9828 8.96837C14.9591 8.87996 14.9715 8.78575 15.0172 8.70646C15.063 8.62718 15.1384 8.56932 15.2268 8.5456C15.3152 8.52189 15.4094 8.53427 15.4887 8.58002L16.3512 9.07751C16.4154 9.11646 16.4653 9.17521 16.4933 9.24492C16.5213 9.31463 16.5259 9.39155 16.5065 9.46412C16.487 9.53669 16.4446 9.60099 16.3855 9.64736C16.3264 9.69373 16.2538 9.71967 16.1787 9.72128ZM16.7959 7.4191H15.8013C15.7098 7.4191 15.622 7.38275 15.5573 7.31805C15.4926 7.25335 15.4563 7.1656 15.4563 7.0741C15.4563 6.9826 15.4926 6.89485 15.5573 6.83014C15.622 6.76544 15.7098 6.7291 15.8013 6.7291H16.7959C16.8874 6.7291 16.9751 6.76544 17.0398 6.83014C17.1045 6.89485 17.1409 6.9826 17.1409 7.0741C17.1409 7.1656 17.1045 7.25335 17.0398 7.31805C16.9751 7.38275 16.8874 7.4191 16.7959 7.4191ZM15.3179 5.6144C15.2427 5.61291 15.17 5.58702 15.1108 5.54062C15.0516 5.49423 15.009 5.42985 14.9895 5.35718C14.9701 5.28451 14.9748 5.20749 15.0029 5.13771C15.031 5.06793 15.081 5.00917 15.1454 4.97029L16.0079 4.47314C16.0871 4.42811 16.1809 4.41624 16.2688 4.44011C16.3567 4.46398 16.4317 4.52165 16.4772 4.60055C16.5228 4.67945 16.5353 4.77316 16.512 4.86124C16.4887 4.94932 16.4315 5.02461 16.3529 5.07068C16.2311 5.1214 15.4442 5.64545 15.3179 5.6144ZM13.9959 4.29271C13.9356 4.29203 13.8765 4.27566 13.8245 4.2452C13.7724 4.21475 13.7292 4.17127 13.6991 4.11904C13.669 4.06681 13.653 4.00764 13.6527 3.94734C13.6524 3.88705 13.6678 3.82773 13.6974 3.77521L14.1949 2.91271C14.241 2.83411 14.3163 2.77693 14.4044 2.75365C14.4925 2.73036 14.5862 2.74286 14.6651 2.78841C14.744 2.83396 14.8016 2.90887 14.8255 2.9968C14.8494 3.08472 14.8375 3.17851 14.7925 3.25771L14.296 4.12021C14.2656 4.17286 14.2219 4.21654 14.1691 4.24683C14.1164 4.27712 14.0567 4.29295 13.9959 4.29271ZM15.499 12.8829H12.999L13.3409 23.2053H17.499L15.499 12.8829ZM11.8059 12.8423H9.15626L7.49902 23.1647H11.8059V12.8423ZM22.8658 22.7395L19.2847 13.1071C19.2598 13.0413 19.2154 12.9846 19.1575 12.9445C19.0995 12.9045 19.0308 12.883 18.9604 12.8829H16.9964L19.499 23.2053H22.5415C22.597 23.2046 22.6516 23.1907 22.7006 23.1647C22.7496 23.1387 22.7918 23.1013 22.8235 23.0558C22.8552 23.0103 22.8756 22.9578 22.8829 22.9028C22.8903 22.8478 22.8844 22.7918 22.8658 22.7395ZM7.50062 12.8829H5.42262C5.35221 12.883 5.28349 12.9045 5.22557 12.9445C5.16766 12.9846 5.12328 13.0413 5.09832 13.1071L1.51722 22.7395C1.49811 22.7918 1.49187 22.8479 1.49902 22.9031C1.50618 22.9583 1.52652 23.011 1.55833 23.0567C1.59014 23.1023 1.63248 23.1397 1.68177 23.1656C1.73106 23.1914 1.78585 23.205 1.84152 23.2053H4.99902L7.50062 12.8829Z" fill="#424242"/>
</svg>
