<svg width="22" height="16" viewBox="0 0 22 16" fill="none" xmlns="http://www.w3.org/2000/svg">
<path d="M11 2.16797C14.79 2.16797 18.17 4.29797 19.82 7.66797C18.17 11.038 14.8 13.168 11 13.168C7.2 13.168 3.83 11.038 2.18 7.66797C3.83 4.29797 7.21 2.16797 11 2.16797ZM11 0.167969C6 0.167969 1.73 3.27797 0 7.66797C1.73 12.058 6 15.168 11 15.168C16 15.168 20.27 12.058 22 7.66797C20.27 3.27797 16 0.167969 11 0.167969ZM11 5.16797C12.38 5.16797 13.5 6.28797 13.5 7.66797C13.5 9.04797 12.38 10.168 11 10.168C9.62 10.168 8.5 9.04797 8.5 7.66797C8.5 6.28797 9.62 5.16797 11 5.16797ZM11 3.16797C8.52 3.16797 6.5 5.18797 6.5 7.66797C6.5 10.148 8.52 12.168 11 12.168C13.48 12.168 15.5 10.148 15.5 7.66797C15.5 5.18797 13.48 3.16797 11 3.16797Z" fill="#666666"/>
</svg>
