<svg width="22" height="20" viewBox="0 0 22 20" fill="none" xmlns="http://www.w3.org/2000/svg">
<path d="M11 3.66523C14.79 3.66523 18.17 5.79523 19.82 9.16523C19.23 10.3852 18.4 11.4352 17.41 12.2852L18.82 13.6952C20.21 12.4652 21.31 10.9252 22 9.16523C20.27 4.77523 16 1.66523 11 1.66523C9.73 1.66523 8.51 1.86523 7.36 2.23523L9.01 3.88523C9.66 3.75523 10.32 3.66523 11 3.66523ZM9.93 4.80523L12 6.87523C12.57 7.12523 13.03 7.58523 13.28 8.15523L15.35 10.2252C15.43 9.88523 15.49 9.52523 15.49 9.15523C15.5 6.67523 13.48 4.66523 11 4.66523C10.63 4.66523 10.28 4.71523 9.93 4.80523ZM1.01 1.53523L3.69 4.21523C2.06 5.49523 0.77 7.19523 0 9.16523C1.73 13.5552 6 16.6652 11 16.6652C12.52 16.6652 13.98 16.3752 15.32 15.8452L18.74 19.2652L20.15 17.8552L2.42 0.115234L1.01 1.53523ZM8.51 9.03523L11.12 11.6452C11.08 11.6552 11.04 11.6652 11 11.6652C9.62 11.6652 8.5 10.5452 8.5 9.16523C8.5 9.11523 8.51 9.08523 8.51 9.03523ZM5.11 5.63523L6.86 7.38523C6.63 7.93524 6.5 8.53523 6.5 9.16523C6.5 11.6452 8.52 13.6652 11 13.6652C11.63 13.6652 12.23 13.5352 12.77 13.3052L13.75 14.2852C12.87 14.5252 11.95 14.6652 11 14.6652C7.21 14.6652 3.83 12.5352 2.18 9.16523C2.88 7.73523 3.9 6.55523 5.11 5.63523Z" fill="#A12622"/>
</svg>
